<svg width="128" height="24" viewBox="0 0 128 24" fill="none" xmlns="http://www.w3.org/2000/svg">
<path d="M27.6413 18V5.22H32.0693C33.4373 5.22 34.5773 5.508 35.4893 6.084C36.4133 6.648 37.1033 7.416 37.5593 8.388C38.0153 9.348 38.2433 10.416 38.2433 11.592C38.2433 12.888 37.9913 14.016 37.4873 14.976C36.9833 15.936 36.2693 16.68 35.3453 17.208C34.4213 17.736 33.3293 18 32.0693 18H27.6413ZM36.6053 11.592C36.6053 10.632 36.4253 9.78 36.0653 9.036C35.7173 8.292 35.2073 7.71 34.5353 7.29C33.8633 6.87 33.0413 6.66 32.0693 6.66H29.2613V16.56H32.0693C33.0533 16.56 33.8813 16.344 34.5533 15.912C35.2253 15.468 35.7353 14.874 36.0833 14.13C36.4313 13.374 36.6053 12.528 36.6053 11.592ZM44.4321 18.18C43.7241 18.18 43.0761 18.054 42.4881 17.802C41.9121 17.538 41.4081 17.184 40.9761 16.74C40.5561 16.284 40.2261 15.762 39.9861 15.174C39.7581 14.586 39.6441 13.962 39.6441 13.302C39.6441 12.414 39.8481 11.604 40.2561 10.872C40.6641 10.14 41.2281 9.552 41.9481 9.108C42.6801 8.664 43.5141 8.442 44.4501 8.442C45.3981 8.442 46.2201 8.67 46.9161 9.126C47.6241 9.57 48.1701 10.158 48.5541 10.89C48.9501 11.61 49.1481 12.39 49.1481 13.23C49.1481 13.35 49.1421 13.47 49.1301 13.59C49.1301 13.698 49.1241 13.782 49.1121 13.842H41.3181C41.3661 14.454 41.5341 15 41.8221 15.48C42.1221 15.948 42.5061 16.32 42.9741 16.596C43.4421 16.86 43.9461 16.992 44.4861 16.992C45.0621 16.992 45.6021 16.848 46.1061 16.56C46.6221 16.272 46.9761 15.894 47.1681 15.426L48.5361 15.804C48.3321 16.26 48.0261 16.668 47.6181 17.028C47.2221 17.388 46.7481 17.67 46.1961 17.874C45.6561 18.078 45.0681 18.18 44.4321 18.18ZM41.2641 12.744H47.6721C47.6241 12.132 47.4501 11.592 47.1501 11.124C46.8501 10.656 46.4661 10.29 45.9981 10.026C45.5301 9.762 45.0141 9.63 44.4501 9.63C43.8981 9.63 43.3881 9.762 42.9201 10.026C42.4521 10.29 42.0681 10.656 41.7681 11.124C41.4801 11.592 41.3121 12.132 41.2641 12.744ZM50.9449 4.86H52.5289V15.57C52.5289 16.086 52.6009 16.404 52.7449 16.524C52.8889 16.644 53.0629 16.704 53.2669 16.704C53.5189 16.704 53.7589 16.68 53.9869 16.632C54.2149 16.572 54.4069 16.512 54.5629 16.452L54.8149 17.748C54.5509 17.856 54.2389 17.946 53.8789 18.018C53.5189 18.09 53.2009 18.126 52.9249 18.126C52.3129 18.126 51.8269 17.952 51.4669 17.604C51.1189 17.256 50.9449 16.77 50.9449 16.146V4.86ZM60.2173 18.18C59.5093 18.18 58.8613 18.054 58.2733 17.802C57.6973 17.538 57.1933 17.184 56.7613 16.74C56.3413 16.284 56.0113 15.762 55.7713 15.174C55.5433 14.586 55.4293 13.962 55.4293 13.302C55.4293 12.414 55.6333 11.604 56.0413 10.872C56.4493 10.14 57.0133 9.552 57.7333 9.108C58.4653 8.664 59.2993 8.442 60.2353 8.442C61.1833 8.442 62.0053 8.67 62.7013 9.126C63.4093 9.57 63.9553 10.158 64.3393 10.89C64.7353 11.61 64.9333 12.39 64.9333 13.23C64.9333 13.35 64.9273 13.47 64.9153 13.59C64.9153 13.698 64.9093 13.782 64.8973 13.842H57.1033C57.1513 14.454 57.3193 15 57.6073 15.48C57.9073 15.948 58.2913 16.32 58.7593 16.596C59.2273 16.86 59.7313 16.992 60.2713 16.992C60.8473 16.992 61.3873 16.848 61.8913 16.56C62.4073 16.272 62.7613 15.894 62.9533 15.426L64.3213 15.804C64.1173 16.26 63.8113 16.668 63.4033 17.028C63.0073 17.388 62.5333 17.67 61.9813 17.874C61.4413 18.078 60.8533 18.18 60.2173 18.18ZM57.0493 12.744H63.4573C63.4093 12.132 63.2353 11.592 62.9353 11.124C62.6353 10.656 62.2513 10.29 61.7833 10.026C61.3153 9.762 60.7993 9.63 60.2353 9.63C59.6833 9.63 59.1733 9.762 58.7053 10.026C58.2373 10.29 57.8533 10.656 57.5533 11.124C57.2653 11.592 57.0973 12.132 57.0493 12.744ZM71.4661 17.532C71.3341 17.592 71.1541 17.67 70.9261 17.766C70.6981 17.862 70.4341 17.946 70.1341 18.018C69.8341 18.09 69.5161 18.126 69.1801 18.126C68.7961 18.126 68.4421 18.06 68.1181 17.928C67.7941 17.784 67.5361 17.568 67.3441 17.28C67.1521 16.98 67.0561 16.608 67.0561 16.164V9.846H65.7781V8.604H67.0561V5.472H68.6401V8.604H70.7461V9.846H68.6401V15.678C68.6641 16.014 68.7781 16.266 68.9821 16.434C69.1861 16.59 69.4261 16.668 69.7021 16.668C70.0141 16.668 70.3021 16.614 70.5661 16.506C70.8301 16.398 71.0041 16.32 71.0881 16.272L71.4661 17.532ZM76.9692 18.18C76.2612 18.18 75.6132 18.054 75.0252 17.802C74.4492 17.538 73.9452 17.184 73.5132 16.74C73.0932 16.284 72.7632 15.762 72.5232 15.174C72.2952 14.586 72.1812 13.962 72.1812 13.302C72.1812 12.414 72.3852 11.604 72.7932 10.872C73.2012 10.14 73.7652 9.552 74.4852 9.108C75.2172 8.664 76.0512 8.442 76.9872 8.442C77.9352 8.442 78.7572 8.67 79.4532 9.126C80.1612 9.57 80.7072 10.158 81.0912 10.89C81.4872 11.61 81.6852 12.39 81.6852 13.23C81.6852 13.35 81.6792 13.47 81.6672 13.59C81.6672 13.698 81.6612 13.782 81.6492 13.842H73.8552C73.9032 14.454 74.0712 15 74.3592 15.48C74.6592 15.948 75.0432 16.32 75.5112 16.596C75.9792 16.86 76.4832 16.992 77.0232 16.992C77.5992 16.992 78.1392 16.848 78.6432 16.56C79.1592 16.272 79.5132 15.894 79.7052 15.426L81.0732 15.804C80.8692 16.26 80.5632 16.668 80.1552 17.028C79.7592 17.388 79.2852 17.67 78.7332 17.874C78.1932 18.078 77.6052 18.18 76.9692 18.18ZM73.8012 12.744H80.2092C80.1612 12.132 79.9872 11.592 79.6872 11.124C79.3872 10.656 79.0032 10.29 78.5352 10.026C78.0672 9.762 77.5512 9.63 76.9872 9.63C76.4352 9.63 75.9252 9.762 75.4572 10.026C74.9892 10.29 74.6052 10.656 74.3052 11.124C74.0172 11.592 73.8492 12.132 73.8012 12.744ZM89.8707 8.208V18H88.2507V5.22H89.6187L97.4307 15.21V5.238H99.0507V18H97.5747L89.8707 8.208ZM105.796 18.18C105.088 18.18 104.446 18.054 103.87 17.802C103.294 17.538 102.796 17.184 102.376 16.74C101.956 16.284 101.632 15.762 101.404 15.174C101.176 14.586 101.062 13.968 101.062 13.32C101.062 12.66 101.176 12.036 101.404 11.448C101.632 10.86 101.956 10.344 102.376 9.9C102.796 9.444 103.294 9.09 103.87 8.838C104.458 8.574 105.1 8.442 105.796 8.442C106.504 8.442 107.146 8.574 107.722 8.838C108.298 9.09 108.796 9.444 109.216 9.9C109.648 10.344 109.978 10.86 110.206 11.448C110.434 12.036 110.548 12.66 110.548 13.32C110.548 13.968 110.434 14.586 110.206 15.174C109.978 15.762 109.654 16.284 109.234 16.74C108.814 17.184 108.31 17.538 107.722 17.802C107.146 18.054 106.504 18.18 105.796 18.18ZM102.682 13.338C102.682 13.986 102.82 14.574 103.096 15.102C103.384 15.63 103.762 16.05 104.23 16.362C104.698 16.662 105.22 16.812 105.796 16.812C106.372 16.812 106.894 16.656 107.362 16.344C107.842 16.032 108.22 15.612 108.496 15.084C108.784 14.544 108.928 13.95 108.928 13.302C108.928 12.654 108.784 12.066 108.496 11.538C108.22 11.01 107.842 10.59 107.362 10.278C106.894 9.966 106.372 9.81 105.796 9.81C105.22 9.81 104.698 9.972 104.23 10.296C103.762 10.608 103.384 11.028 103.096 11.556C102.82 12.084 102.682 12.678 102.682 13.338ZM117.187 17.532C117.055 17.592 116.875 17.67 116.647 17.766C116.419 17.862 116.155 17.946 115.855 18.018C115.555 18.09 115.237 18.126 114.901 18.126C114.517 18.126 114.163 18.06 113.839 17.928C113.515 17.784 113.257 17.568 113.065 17.28C112.873 16.98 112.777 16.608 112.777 16.164V9.846H111.499V8.604H112.777V5.472H114.361V8.604H116.467V9.846H114.361V15.678C114.385 16.014 114.499 16.266 114.703 16.434C114.907 16.59 115.147 16.668 115.423 16.668C115.735 16.668 116.023 16.614 116.287 16.506C116.551 16.398 116.725 16.32 116.809 16.272L117.187 17.532ZM122.69 18.18C121.982 18.18 121.334 18.054 120.746 17.802C120.17 17.538 119.666 17.184 119.234 16.74C118.814 16.284 118.484 15.762 118.244 15.174C118.016 14.586 117.902 13.962 117.902 13.302C117.902 12.414 118.106 11.604 118.514 10.872C118.922 10.14 119.486 9.552 120.206 9.108C120.938 8.664 121.772 8.442 122.708 8.442C123.656 8.442 124.478 8.67 125.174 9.126C125.882 9.57 126.428 10.158 126.812 10.89C127.208 11.61 127.406 12.39 127.406 13.23C127.406 13.35 127.4 13.47 127.388 13.59C127.388 13.698 127.382 13.782 127.37 13.842H119.576C119.624 14.454 119.792 15 120.08 15.48C120.38 15.948 120.764 16.32 121.232 16.596C121.7 16.86 122.204 16.992 122.744 16.992C123.32 16.992 123.86 16.848 124.364 16.56C124.88 16.272 125.234 15.894 125.426 15.426L126.794 15.804C126.59 16.26 126.284 16.668 125.876 17.028C125.48 17.388 125.006 17.67 124.454 17.874C123.914 18.078 123.326 18.18 122.69 18.18ZM119.522 12.744H125.93C125.882 12.132 125.708 11.592 125.408 11.124C125.108 10.656 124.724 10.29 124.256 10.026C123.788 9.762 123.272 9.63 122.708 9.63C122.156 9.63 121.646 9.762 121.178 10.026C120.71 10.29 120.326 10.656 120.026 11.124C119.738 11.592 119.57 12.132 119.522 12.744Z" fill="#E50000"/>
<path d="M3 6.28259C2.58579 6.28259 2.25 6.61838 2.25 7.03259C2.25 7.44681 2.58579 7.78259 3 7.78259V6.28259ZM21 7.78259C21.4142 7.78259 21.75 7.44681 21.75 7.03259C21.75 6.61838 21.4142 6.28259 21 6.28259V7.78259ZM5 7.03259V6.28259H4.25V7.03259H5ZM19 7.03259H19.75V6.28259H19V7.03259ZM18.3418 16.8303L19.0624 17.0383L18.3418 16.8303ZM13.724 20.8553L13.8489 21.5949L13.724 20.8553ZM10.276 20.8553L10.401 20.1158L10.401 20.1158L10.276 20.8553ZM10.1183 20.8287L9.9933 21.5682H9.9933L10.1183 20.8287ZM5.65815 16.8303L4.93757 17.0383L5.65815 16.8303ZM13.8817 20.8287L13.7568 20.0892L13.8817 20.8287ZM7.84254 5.48939L8.52333 5.80406L7.84254 5.48939ZM8.81802 4.18112L8.31749 3.62258V3.62258L8.81802 4.18112ZM10.2779 3.30696L10.5389 4.01009L10.2779 3.30696ZM13.7221 3.30696L13.9831 2.60384V2.60384L13.7221 3.30696ZM16.1575 5.48939L16.8383 5.17471L16.1575 5.48939ZM3 7.78259H21V6.28259H3V7.78259ZM13.7568 20.0892L13.599 20.1158L13.8489 21.5949L14.0067 21.5682L13.7568 20.0892ZM10.401 20.1158L10.2432 20.0892L9.9933 21.5682L10.151 21.5949L10.401 20.1158ZM18.25 7.03259V12.1758H19.75V7.03259H18.25ZM5.75 12.1759V7.03259H4.25V12.1759H5.75ZM18.25 12.1758C18.25 13.6806 18.0383 15.1776 17.6212 16.6223L19.0624 17.0383C19.5185 15.4583 19.75 13.8212 19.75 12.1758H18.25ZM13.599 20.1158C12.5404 20.2947 11.4596 20.2947 10.401 20.1158L10.151 21.5949C11.3751 21.8017 12.6248 21.8017 13.8489 21.5949L13.599 20.1158ZM10.2432 20.0892C8.40523 19.7786 6.90157 18.4335 6.37873 16.6223L4.93757 17.0383C5.61878 19.3981 7.58166 21.1607 9.9933 21.5682L10.2432 20.0892ZM6.37873 16.6223C5.9617 15.1776 5.75 13.6806 5.75 12.1759H4.25C4.25 13.8212 4.48148 15.4583 4.93757 17.0383L6.37873 16.6223ZM14.0067 21.5682C16.4183 21.1607 18.3812 19.3981 19.0624 17.0383L17.6212 16.6223C17.0984 18.4335 15.5947 19.7786 13.7568 20.0892L14.0067 21.5682ZM8.25 7.03259C8.25 6.61367 8.34194 6.19649 8.52333 5.80406L7.16175 5.17471C6.89085 5.76079 6.75 6.39238 6.75 7.03259H8.25ZM8.52333 5.80406C8.70487 5.41133 8.97357 5.04881 9.31855 4.73966L8.31749 3.62258C7.82675 4.06235 7.43251 4.58893 7.16175 5.17471L8.52333 5.80406ZM9.31855 4.73966C9.66369 4.43037 10.0778 4.18126 10.5389 4.01009L10.0169 2.60384C9.38616 2.83798 8.80808 3.18295 8.31749 3.62258L9.31855 4.73966ZM10.5389 4.01009C11.0001 3.8389 11.4968 3.75 12 3.75V2.25C11.3213 2.25 10.6477 2.36972 10.0169 2.60384L10.5389 4.01009ZM12 3.75C12.5032 3.75 12.9999 3.8389 13.4611 4.01009L13.9831 2.60384C13.3523 2.36972 12.6787 2.25 12 2.25V3.75ZM13.4611 4.01009C13.9222 4.18126 14.3363 4.43037 14.6815 4.73966L15.6825 3.62258C15.1919 3.18295 14.6138 2.83798 13.9831 2.60384L13.4611 4.01009ZM14.6815 4.73966C15.0264 5.04881 15.2951 5.41133 15.4767 5.80407L16.8383 5.17471C16.5675 4.58893 16.1733 4.06235 15.6825 3.62258L14.6815 4.73966ZM15.4767 5.80406C15.6581 6.19649 15.75 6.61367 15.75 7.03259H17.25C17.25 6.39238 17.1092 5.7608 16.8383 5.17471L15.4767 5.80406ZM5 7.78259H19V6.28259H5V7.78259Z" fill="#E50000"/>
<path d="M10 12V16M14 12V16" stroke="#E50000" stroke-width="1.5" stroke-linecap="round"/>
</svg>
