<svg width="105" height="24" viewBox="0 0 105 24" fill="none" xmlns="http://www.w3.org/2000/svg">
<path d="M36.6035 16.56V18H27.9275V5.22H36.4415V6.66H29.5475V10.8H35.5415V12.15H29.5475V16.56H36.6035ZM37.751 13.32C37.751 12.432 37.931 11.622 38.291 10.89C38.663 10.146 39.167 9.552 39.803 9.108C40.451 8.664 41.189 8.442 42.017 8.442C42.773 8.442 43.451 8.64 44.051 9.036C44.651 9.432 45.119 9.912 45.455 10.476V4.86H47.039V16.2C47.039 16.392 47.075 16.536 47.147 16.632C47.231 16.716 47.363 16.764 47.543 16.776V18C47.243 18.048 47.009 18.072 46.841 18.072C46.529 18.072 46.253 17.964 46.013 17.748C45.785 17.532 45.671 17.292 45.671 17.028V16.236C45.299 16.836 44.801 17.31 44.177 17.658C43.553 18.006 42.905 18.18 42.233 18.18C41.585 18.18 40.985 18.054 40.433 17.802C39.893 17.538 39.419 17.178 39.011 16.722C38.615 16.266 38.303 15.75 38.075 15.174C37.859 14.586 37.751 13.968 37.751 13.32ZM45.455 14.706V12.006C45.311 11.598 45.077 11.232 44.753 10.908C44.429 10.572 44.063 10.308 43.655 10.116C43.259 9.912 42.863 9.81 42.467 9.81C41.999 9.81 41.573 9.912 41.189 10.116C40.817 10.308 40.493 10.572 40.217 10.908C39.953 11.232 39.749 11.604 39.605 12.024C39.461 12.444 39.389 12.882 39.389 13.338C39.389 13.806 39.467 14.25 39.623 14.67C39.791 15.09 40.019 15.462 40.307 15.786C40.607 16.11 40.949 16.362 41.333 16.542C41.729 16.722 42.155 16.812 42.611 16.812C42.899 16.812 43.193 16.758 43.493 16.65C43.805 16.542 44.099 16.392 44.375 16.2C44.651 16.008 44.885 15.786 45.077 15.534C45.269 15.27 45.395 14.994 45.455 14.706ZM49.6833 18V8.604H51.2673V18H49.6833ZM49.6833 6.84V4.86H51.2673V6.84H49.6833ZM58.6917 17.532C58.5597 17.592 58.3797 17.67 58.1517 17.766C57.9237 17.862 57.6597 17.946 57.3597 18.018C57.0597 18.09 56.7417 18.126 56.4057 18.126C56.0217 18.126 55.6677 18.06 55.3437 17.928C55.0197 17.784 54.7617 17.568 54.5697 17.28C54.3777 16.98 54.2817 16.608 54.2817 16.164V9.846H53.0037V8.604H54.2817V5.472H55.8657V8.604H57.9717V9.846H55.8657V15.678C55.8897 16.014 56.0037 16.266 56.2077 16.434C56.4117 16.59 56.6517 16.668 56.9277 16.668C57.2397 16.668 57.5277 16.614 57.7917 16.506C58.0557 16.398 58.2297 16.32 58.3137 16.272L58.6917 17.532ZM66.5846 8.208V18H64.9646V5.22H66.3326L74.1446 15.21V5.238H75.7646V18H74.2886L66.5846 8.208ZM82.5099 18.18C81.8019 18.18 81.1599 18.054 80.5839 17.802C80.0079 17.538 79.5099 17.184 79.0899 16.74C78.6699 16.284 78.3459 15.762 78.1179 15.174C77.8899 14.586 77.7759 13.968 77.7759 13.32C77.7759 12.66 77.8899 12.036 78.1179 11.448C78.3459 10.86 78.6699 10.344 79.0899 9.9C79.5099 9.444 80.0079 9.09 80.5839 8.838C81.1719 8.574 81.8139 8.442 82.5099 8.442C83.2179 8.442 83.8599 8.574 84.4359 8.838C85.0119 9.09 85.5099 9.444 85.9299 9.9C86.3619 10.344 86.6919 10.86 86.9199 11.448C87.1479 12.036 87.2619 12.66 87.2619 13.32C87.2619 13.968 87.1479 14.586 86.9199 15.174C86.6919 15.762 86.3679 16.284 85.9479 16.74C85.5279 17.184 85.0239 17.538 84.4359 17.802C83.8599 18.054 83.2179 18.18 82.5099 18.18ZM79.3959 13.338C79.3959 13.986 79.5339 14.574 79.8099 15.102C80.0979 15.63 80.4759 16.05 80.9439 16.362C81.4119 16.662 81.9339 16.812 82.5099 16.812C83.0859 16.812 83.6079 16.656 84.0759 16.344C84.5559 16.032 84.9339 15.612 85.2099 15.084C85.4979 14.544 85.6419 13.95 85.6419 13.302C85.6419 12.654 85.4979 12.066 85.2099 11.538C84.9339 11.01 84.5559 10.59 84.0759 10.278C83.6079 9.966 83.0859 9.81 82.5099 9.81C81.9339 9.81 81.4119 9.972 80.9439 10.296C80.4759 10.608 80.0979 11.028 79.8099 11.556C79.5339 12.084 79.3959 12.678 79.3959 13.338ZM93.9007 17.532C93.7687 17.592 93.5887 17.67 93.3607 17.766C93.1327 17.862 92.8687 17.946 92.5687 18.018C92.2687 18.09 91.9507 18.126 91.6147 18.126C91.2307 18.126 90.8767 18.06 90.5527 17.928C90.2287 17.784 89.9707 17.568 89.7787 17.28C89.5867 16.98 89.4907 16.608 89.4907 16.164V9.846H88.2127V8.604H89.4907V5.472H91.0747V8.604H93.1807V9.846H91.0747V15.678C91.0987 16.014 91.2127 16.266 91.4167 16.434C91.6207 16.59 91.8607 16.668 92.1367 16.668C92.4487 16.668 92.7367 16.614 93.0007 16.506C93.2647 16.398 93.4387 16.32 93.5227 16.272L93.9007 17.532ZM99.4038 18.18C98.6958 18.18 98.0478 18.054 97.4598 17.802C96.8838 17.538 96.3798 17.184 95.9478 16.74C95.5278 16.284 95.1978 15.762 94.9578 15.174C94.7298 14.586 94.6158 13.962 94.6158 13.302C94.6158 12.414 94.8198 11.604 95.2278 10.872C95.6358 10.14 96.1998 9.552 96.9198 9.108C97.6518 8.664 98.4858 8.442 99.4218 8.442C100.37 8.442 101.192 8.67 101.888 9.126C102.596 9.57 103.142 10.158 103.526 10.89C103.922 11.61 104.12 12.39 104.12 13.23C104.12 13.35 104.114 13.47 104.102 13.59C104.102 13.698 104.096 13.782 104.084 13.842H96.2898C96.3378 14.454 96.5058 15 96.7938 15.48C97.0938 15.948 97.4778 16.32 97.9458 16.596C98.4138 16.86 98.9178 16.992 99.4578 16.992C100.034 16.992 100.574 16.848 101.078 16.56C101.594 16.272 101.948 15.894 102.14 15.426L103.508 15.804C103.304 16.26 102.998 16.668 102.59 17.028C102.194 17.388 101.72 17.67 101.168 17.874C100.628 18.078 100.04 18.18 99.4038 18.18ZM96.2358 12.744H102.644C102.596 12.132 102.422 11.592 102.122 11.124C101.822 10.656 101.438 10.29 100.97 10.026C100.502 9.762 99.9858 9.63 99.4218 9.63C98.8698 9.63 98.3598 9.762 97.8918 10.026C97.4238 10.29 97.0398 10.656 96.7398 11.124C96.4518 11.592 96.2838 12.132 96.2358 12.744Z" fill="#E5E5E5"/>
<path d="M17.25 10.9921C15.129 11.6991 12.3009 8.87105 13.0079 6.75M13.8793 5.87857L9.30971 10.4482C7.3231 12.4348 5.91376 14.924 5.23236 17.6496L5.01156 18.5328C4.94276 18.808 5.19204 19.0572 5.46723 18.9884L6.35044 18.7676C9.07604 18.0862 11.5652 16.6769 13.5518 14.6903L18.1214 10.1207C18.684 9.55813 19 8.79516 19 7.99962C19 6.34297 17.657 5 16.0004 5C15.2048 5 14.4419 5.31603 13.8793 5.87857Z" stroke="#E5E5E5" stroke-width="1.5"/>
</svg>
