<svg width="20" height="20" viewBox="0 0 20 20" fill="none" xmlns="http://www.w3.org/2000/svg">
<path d="M12.7 18.9583H7.30002C5.72502 18.9583 4.57502 18.3 4.13335 17.1667C3.67502 15.9833 4.10001 14.5167 5.20001 13.525L9.06668 10L5.20001 6.475C4.10001 5.48333 3.67502 4.01667 4.13335 2.83333C4.57502 1.69167 5.72502 1.04167 7.30002 1.04167H12.7C14.275 1.04167 15.425 1.7 15.8667 2.83333C16.325 4.01667 15.9 5.48333 14.8 6.475L10.9333 10L14.8083 13.525C15.9 14.5167 16.3333 15.9833 15.875 17.1667C15.425 18.3 14.275 18.9583 12.7 18.9583ZM10 10.8417L6.04168 14.4417C5.34168 15.0833 5.03335 16.0167 5.30002 16.7083C5.55002 17.35 6.25835 17.7083 7.30002 17.7083H12.7C13.7417 17.7083 14.45 17.3583 14.7 16.7083C14.9667 16.0167 14.6667 15.0833 13.9583 14.4417L10 10.8417ZM7.30002 2.29167C6.25835 2.29167 5.55002 2.64167 5.30002 3.29167C5.03335 3.98333 5.33335 4.91667 6.04168 5.55833L10 9.15833L13.9583 5.55833C14.6583 4.91667 14.9667 3.98333 14.7 3.29167C14.45 2.65 13.7417 2.29167 12.7 2.29167H7.30002Z" fill="#E5E5E5"/>
</svg>
